<?xml version="1.0" encoding="UTF-8"?>
<svg width="143px" height="27px" viewBox="0 0 143 27" version="1.1" xmlns="http://www.w3.org/2000/svg" xmlns:xlink="http://www.w3.org/1999/xlink">
    <!-- Generator: Sketch 43.2 (39069) - http://www.bohemiancoding.com/sketch -->
    <title>Page 1</title>
    <desc>Created with Sketch.</desc>
    <defs>
        <polygon id="path-1" points="3.84101775e-20 0.565071567 3.84101775e-20 26.2894737 12.5136667 26.2894737 25.0273335 26.2894737 25.0273335 0.565071567 0 0.565071567"></polygon>
        <polygon id="path-3" points="3.59656281 3.4412027 3.59656281 0.599097437 0.0218231156 0.599097437 0.0218231156 3.4412027 3.59656281 3.4412027"></polygon>
    </defs>
    <g id="Design" stroke="none" stroke-width="1" fill="none" fill-rule="evenodd">
        <g id="design-/-profile" transform="translate(-25.000000, -18.000000)">
            <g id="Page-1" transform="translate(25.000000, 18.000000)">
                <g id="Group-26" transform="translate(0.000000, 0.145516)">
                    <g id="Group-3">
                        <mask id="mask-2" fill="white">
                            <use xlink:href="#path-1"></use>
                        </mask>
                        <g id="Clip-2"></g>
                        <path d="M14.9564156,26.2894737 L9.95693819,26.2894737 C9.18462663,26.2717105 7.74203367,25.7480526 7.74203367,23.8957105 L7.74203367,18.2569737 L2.38970201,18.2569737 C2.21469196,18.2676316 1.40695327,18.2775789 0.760053769,17.6814474 C0.25911407,17.2174737 0.00403869347,16.5346579 0.00403869347,15.6507632 L0.00403869347,10.8717632 C-0.00800653266,10.6792105 -0.0370567839,9.74557895 0.591420603,9.04428947 C1.04772211,8.53981579 1.71091809,8.28260526 2.56471206,8.28260526 L6.7472397,8.28260526 L8.72549095,8.29397368 C8.87570201,8.29610526 9.02166181,8.36360526 9.1194407,8.47942105 C9.81381256,9.30007895 10.3629332,9.53171053 10.367893,9.53384211 C10.3962347,9.54521053 10.4281191,9.56013158 10.4529181,9.57718421 C11.512898,10.2393947 12.3943251,10.1342368 12.4325864,10.1306842 C12.4595111,10.1271316 12.4906869,10.125 12.5183201,10.1264211 C14.2251995,10.1754474 15.3581593,9.05494737 15.3709131,9.04357895 C17.0699985,7.42215789 16.7490286,5.50160526 16.7454859,5.48313158 C16.7433603,5.47176316 16.7419432,5.45968421 16.7398176,5.44831579 C16.4889935,3.20589474 14.8338377,2.30707895 14.7622749,2.27084211 C14.7516467,2.26444737 14.738893,2.25663158 14.7275563,2.25094737 C12.9675362,1.15815789 11.3421392,1.79052632 11.272702,1.81752632 C11.263491,1.82178947 11.2493201,1.82676316 11.238692,1.82960526 C9.19312915,2.50602632 8.6234608,4.18215789 8.60078744,4.25321053 C8.59582764,4.26671053 8.5901593,4.28234211 8.58307387,4.29584211 C8.27698342,5.02697368 8.19479246,5.81210526 8.3414608,6.62210526 C8.39176734,6.90773684 8.20400352,7.17986842 7.92058643,7.23031579 C7.63716935,7.28289474 7.36296332,7.09389474 7.31336533,6.80826316 C7.13126985,5.80073684 7.23259146,4.82447368 7.61378744,3.90718421 C7.7044809,3.64144737 8.46120452,1.65055263 10.8978829,0.839842105 C11.1366618,0.746763158 13.1326266,0.0369473684 15.262506,1.35 C15.5055362,1.48215789 17.4696166,2.62539474 17.7771241,5.31757895 C17.8189281,5.57407895 18.1193503,7.86765789 16.1070889,9.7875 C15.9788427,9.91539474 14.6184407,11.2206316 12.524697,11.1744474 C12.2738729,11.2000263 11.1749231,11.2497632 9.93568191,10.4880789 C9.75287789,10.4063684 9.17754121,10.1100789 8.48316935,9.34128947 L6.74440553,9.33134211 L2.56471206,9.33134211 C2.02055126,9.33134211 1.61739045,9.47060526 1.3694005,9.74628947 C0.999541206,10.1569737 1.04630503,10.7907632 1.04630503,10.7957368 C1.04843065,10.8149211 1.04843065,10.8319737 1.04843065,10.8504474 L1.04843065,15.6507632 C1.04843065,16.2262895 1.18801357,16.6476316 1.45938543,16.9027105 C1.81790804,17.2395 2.32876734,17.2103684 2.33301859,17.2103684 L2.37340553,17.2103684 L8.26564673,17.2103684 C8.55402362,17.2103684 8.78784271,17.4434211 8.78784271,17.7326053 L8.78784271,23.8957105 C8.78784271,25.1767895 9.84711407,25.2378947 9.96756633,25.2400263 L14.9564156,25.2400263 C16.2041593,25.2400263 16.2395864,24.084 16.2395864,23.9518421 L16.2395864,17.7141316 C16.2395864,17.4249474 16.4741141,17.1883421 16.762491,17.1883421 L22.7716417,17.1883421 C23.8344558,17.1883421 23.9619935,16.2255789 23.9782899,16.0017632 L23.9782899,10.7936053 L23.9782899,10.7595 C24.0186769,10.1043947 23.6502347,9.75197368 23.6325211,9.73776316 C23.6176417,9.72355263 23.5949683,9.70081579 23.581506,9.68447368 C23.3158025,9.36757895 22.7766015,9.32352632 22.5902548,9.33347368 L22.5583704,9.33347368 L18.7619985,9.33347368 C18.4729131,9.33347368 18.2398025,9.09971053 18.2398025,8.80910526 C18.2398025,8.51921053 18.4729131,8.28402632 18.7619985,8.28402632 L22.5456166,8.28402632 C22.7319633,8.27621053 23.7295915,8.26342105 24.3580688,8.98034211 C24.6436116,9.25034211 25.0729884,9.90260526 25.0233905,10.8085263 L25.0233905,16.0173947 L25.0233905,16.0408421 C25.0212648,16.0962632 24.9900889,16.5978947 24.7165915,17.1130263 C24.3297271,17.8377632 23.6381894,18.2385 22.7716417,18.2385 L17.2846869,18.2385 L17.2846869,23.9518421 C17.2846869,24.0122368 17.2776015,24.5437105 17.0033955,25.0929474 C16.6193653,25.8645789 15.8909834,26.2894737 14.9564156,26.2894737" id="Fill-1" fill="#0797CC" mask="url(#mask-2)"></path>
                    </g>
                    <path d="M101.731146,6.79163684 C102.219332,6.66871579 103.07596,6.57279474 104.199,6.57563684 C106.891462,6.5799 109.039764,7.76008421 109.034804,10.7272421 C109.029136,13.5970579 107.095523,15.1637684 103.915583,15.1573737 C103.060372,15.1559526 102.304357,15.1047947 101.714141,14.9072684 L101.731146,6.79163684 Z M100.208487,24.0751895 L101.697844,24.0773211 L101.714141,16.2068211 C102.349704,16.3794789 103.057538,16.4064789 103.840477,16.4079 C106.822025,16.4128737 110.541166,15.0955579 110.549668,10.5837158 C110.553211,8.91753158 109.924025,5.33505789 104.225925,5.32511053 C102.615407,5.32226842 101.291141,5.48924211 100.240372,5.68534737 L100.208487,24.0751895 Z" id="Fill-4" fill="#2DB24B"></path>
                    <polygon id="Fill-6" fill="#2DB24B" points="114.038958 4.48448684 112.523385 4.48235526 112.487958 24.0758289 114.004948 24.07725"></polygon>
                    <path d="M127.045251,10.5239605 L125.526844,10.5196974 L125.509839,18.7916447 C125.507714,21.3623289 123.353744,22.7769868 121.617814,22.7734342 C119.147834,22.76775 118.320965,20.7853816 118.32309,17.9951447 L118.339387,10.5061974 L116.825231,10.5047763 L116.807518,18.3020921 C116.799724,23.1329605 119.413538,24.0751184 121.199774,24.07725 C123.523794,24.0822237 124.943714,22.6803553 125.582819,21.5293026 L125.654382,21.5293026 L125.746492,23.7866447 L127.141613,23.7901974 C127.070759,22.7848026 127.023995,21.7083553 127.025412,20.4578289 L127.045251,10.5239605 Z" id="Fill-8" fill="#2DB24B"></path>
                    <path d="M136.415799,11.0610474 C135.707257,10.5913895 134.682704,10.2226263 133.457634,10.2204947 C130.891292,10.2162316 129.321161,11.9065737 129.318327,13.8662053 C129.316202,15.4620474 130.510805,16.6642579 132.662649,17.5268368 C134.519739,18.2913632 135.323935,19.0530474 135.321101,20.4264947 C135.318267,21.7743632 134.364568,22.8515211 132.382774,22.8479684 C131.208719,22.8472579 130.13386,22.3534421 129.448699,21.9349421 L128.936423,23.1598895 C129.814307,23.7006 131.013161,24.0757579 132.307669,24.0771789 C134.949116,24.0821526 136.809749,22.6589684 136.812583,20.2303895 C136.818252,18.2451789 135.548543,17.1644684 133.422915,16.3040211 C131.660769,15.5380737 130.807684,14.9739158 130.811227,13.6487842 C130.812644,12.4714421 131.66998,11.4433105 133.285458,11.4468632 C134.532493,11.4497053 135.386287,11.9413895 135.849674,12.2597053 L136.415799,11.0610474 Z" id="Fill-10" fill="#2DB24B"></path>
                    <path d="M34.9806829,6.79163684 C35.471703,6.66942632 36.3276226,6.57279474 37.4520799,6.57563684 C40.140291,6.5799 42.2907181,7.76008421 42.2850497,10.7258211 C42.281507,13.5956368 40.3457683,15.1623474 37.1686628,15.1559526 C36.309909,15.1552421 35.5524769,15.1033737 34.965095,14.9072684 L34.9806829,6.79163684 Z M33.4601503,24.0751895 L34.9480899,24.0773211 L34.965095,16.2061105 C35.5985322,16.3794789 36.3077834,16.4043474 37.0907231,16.4064789 C40.0736879,16.4128737 43.7921201,15.0955579 43.8027482,10.5837158 C43.8034568,8.91468947 43.1735623,5.33647895 37.4775874,5.3244 C35.8649442,5.32226842 34.5435121,5.48924211 33.4920347,5.68321579 L33.4601503,24.0751895 Z" id="Fill-12" fill="#0797CC"></path>
                    <path d="M52.5701141,19.4950658 C52.5672799,20.4741711 51.5859482,22.8530132 48.7496518,22.84875 C47.4268025,22.8451974 46.2307824,22.0074868 46.2357422,20.1700658 C46.2414106,17.0814079 49.8124658,16.7439079 52.5750739,16.7510132 L52.5701141,19.4950658 Z M54.0686819,15.4514605 C54.0750588,12.9504079 53.2467724,10.2006711 49.5049583,10.1964079 C48.2090337,10.1928553 46.7664407,10.5573553 45.6157673,11.3161974 L46.0543553,12.3961974 C46.9818377,11.7361184 48.1828176,11.4192237 49.3079834,11.4227763 C52.560903,11.42775 52.5552347,14.2478289 52.5524005,15.54525 C47.3701191,15.4862763 44.6507322,17.2725395 44.6450638,20.3874868 C44.6429382,22.2021711 45.9098126,24.0729868 48.5016618,24.07725 C50.5068377,24.0822237 51.9529734,23.0015132 52.5899533,21.9463816 L52.6643503,21.9463816 L52.8322749,23.7845132 L54.2245613,23.7901974 C54.0793101,22.8075395 54.0580538,21.6785132 54.0601794,20.6269342 L54.0686819,15.4514605 Z" id="Fill-14" fill="#0797CC"></path>
                    <path d="M57.3354181,10.5316342 L55.1856995,10.5273711 L55.1828653,11.7302921 L57.3332925,11.7331342 L57.3191216,19.8977921 C57.3155789,21.9100026 57.7017347,24.0742658 60.4416693,24.0771079 C61.2486995,24.0792395 61.8601719,23.9577395 62.2753779,23.7822395 L62.1294181,22.6048974 C61.788609,22.7278184 61.3493126,22.8237395 60.6889508,22.8237395 C59.3207548,22.8216079 58.8070613,21.7899237 58.810604,20.0988711 L58.8254834,11.7359763 L62.4433025,11.7430816 L62.4475538,10.5415816 L58.827609,10.5330553 L58.8332774,7.56731842 L57.3403779,8.10376579 L57.3354181,10.5316342 Z" id="Fill-16" fill="#0797CC"></path>
                    <path d="M65.3885729,10.8112263 L63.8708744,10.8083842 L63.8460754,24.0753316 L65.3637739,24.0774632 L65.3885729,10.8112263 Z M65.7853568,7.03691053 C65.7867739,6.3747 65.349603,5.83398947 64.6623166,5.83398947 C64.0012462,5.83256842 63.5137688,6.39388421 63.5123518,7.03264737 C63.5095176,7.69414737 63.9736131,8.25688421 64.6332663,8.25972632 C65.2964623,8.26327895 65.7846482,7.77372632 65.7853568,7.03691053 L65.7853568,7.03691053 Z" id="Fill-18" fill="#0797CC"></path>
                    <path d="M68.8053075,15.9493974 C69.0299156,13.9627658 70.231604,11.4389763 72.9743729,11.4453711 C75.9318302,11.4496342 76.708393,14.0757395 76.6828854,15.9636079 L68.8053075,15.9493974 Z M77.1101367,22.1181868 C76.3491618,22.4862395 75.3713729,22.85145 73.5631719,22.8478974 C70.9684884,22.8443447 68.7238251,21.2463711 68.7316191,17.1246079 L78.1708251,17.1423711 C78.194207,16.8482132 78.219006,16.62795 78.219006,16.2598974 C78.1998754,14.2015026 77.3248251,10.2246868 73.1196241,10.2175816 C69.6973628,10.2118974 67.245805,13.05045 67.2401367,17.3924763 C67.2316342,21.2918447 69.5478603,24.0707132 73.3647799,24.0771079 C75.5407146,24.0820816 76.8869457,23.5648184 77.4736191,23.2479237 L77.1101367,22.1181868 Z" id="Fill-20" fill="#0797CC"></path>
                    <path d="M90.4529171,16.0340211 C90.4635452,11.2543105 87.2878568,10.4869421 85.9161181,10.4833895 C83.7904899,10.4819684 82.1969774,11.6813368 81.4877261,13.1002579 L81.435294,13.1002579 L81.3176759,10.7960211 L79.9480628,10.7924684 C79.9955352,11.8213105 80.0437161,12.7556526 80.0415905,14.0296263 L80.0217513,24.0587053 L81.5394497,24.0615474 L81.5529121,15.8471526 C81.5585804,13.7397316 83.2484548,11.7559421 85.4754045,11.7594947 C88.0920528,11.7637579 88.9415955,13.8754421 88.9394698,16.2301263 L88.9231734,24.0750474 L90.4394548,24.0771789 L90.4529171,16.0340211 Z" id="Fill-22" fill="#0797CC"></path>
                    <path d="M93.7472156,10.5316342 L91.5953714,10.5280816 L91.5918286,11.7288711 L93.7450899,11.7324237 L93.7302106,19.8977921 C93.7259593,21.9085816 94.1114065,24.0721342 96.8499241,24.0771079 C97.660497,24.0792395 98.2719693,23.9577395 98.6857583,23.7815289 L98.5433412,22.6034763 C98.199698,22.7278184 97.7568588,22.82445 97.0986226,22.8237395 C95.7290095,22.8216079 95.2188588,21.7899237 95.221693,20.0981605 L95.2372809,11.7359763 L98.8543915,11.7430816 L98.8593513,10.5430026 L95.2401151,10.5330553 L95.2450749,7.56802895 L93.7514668,8.10376579 L93.7472156,10.5316342 Z" id="Fill-24" fill="#0797CC"></path>
                </g>
                <text id="TM" font-family="Verdana" font-size="3.4585" font-weight="normal" fill="#2DB24B">
                    <tspan x="137.770567" y="24.3498764">TM</tspan>
                </text>
                <text id="Beta" font-family="Verdana" font-size="6" font-weight="normal" fill="#919396">
                    <tspan x="124.842959" y="8.56643484">Beta</tspan>
                </text>
                <g id="Group-28" transform="translate(136.748744, 20.750779)">
                    <mask id="mask-4" fill="white">
                        <use xlink:href="#path-3"></use>
                    </mask>
                    <g id="Clip-27"></g>
                </g>
            </g>
        </g>
    </g>
</svg>